<svg xmlns="http://www.w3.org/2000/svg" viewBox="0 0 1400 360" role="img" aria-label="RouteWise">
  <defs>
    <linearGradient id="bg" x1="0" y1="0" x2="1" y2="1">
      <stop offset="0" stop-color="#2563EB"/>
      <stop offset="1" stop-color="#1D4ED8"/>
    </linearGradient>
  </defs>

  <!-- Icon (same motif) -->
  <g transform="translate(40,40)">
    <rect x="0" y="0" width="280" height="280" rx="84" fill="url(#bg)"/>
    <path d="M58 194 C96 136, 132 232, 170 178 C206 126, 246 150, 270 116" fill="none" stroke="#FFFFFF" stroke-width="18" stroke-linecap="round" stroke-linejoin="round" opacity="0.95"/>
    <path d="M260 84c-26 0-48 22-48 48 0 36 48 78 48 78s48-42 48-78c0-26-22-48-48-48z" fill="#FFFFFF" opacity="0.98"/>
    <circle cx="260" cy="132" r="18" fill="#2563EB"/>
    <circle cx="58" cy="194" r="8" fill="#FFFFFF" opacity="0.95"/>
  </g>

  <!-- Wordmark -->
  <g transform="translate(360,0)">
    <text x="0" y="228"
      font-family="ui-sans-serif, system-ui, -apple-system, Segoe UI, Roboto, Helvetica, Arial, 'Apple Color Emoji','Segoe UI Emoji'"
      font-size="172"
      font-weight="800"
      letter-spacing="-2"
      fill="#0F172A">Route</text>
    <text x="545" y="228"
      font-family="ui-sans-serif, system-ui, -apple-system, Segoe UI, Roboto, Helvetica, Arial, 'Apple Color Emoji','Segoe UI Emoji'"
      font-size="172"
      font-weight="800"
      letter-spacing="-2"
      fill="#2563EB">Wise</text>
  </g>
</svg>
