<svg xmlns="http://www.w3.org/2000/svg" viewBox="0 0 1024 1024" role="img" aria-label="RouteWise">
  <defs>
    <linearGradient id="bg" x1="0" y1="0" x2="1" y2="1">
      <stop offset="0" stop-color="#2563EB"/>
      <stop offset="1" stop-color="#1D4ED8"/>
    </linearGradient>
    <filter id="soft" x="-20%" y="-20%" width="140%" height="140%">
      <feDropShadow dx="0" dy="10" stdDeviation="16" flood-color="#0B1F5C" flood-opacity="0.28"/>
    </filter>
  </defs>

  <!-- Background -->
  <rect x="64" y="64" width="896" height="896" rx="224" fill="url(#bg)"/>

  <!-- Mailbox + letter icon -->
  <g filter="url(#soft)" opacity="0.98">
    <!-- Post -->
    <rect x="468" y="612" width="88" height="220" rx="20" fill="#FFFFFF"/>

    <!-- Mailbox body -->
    <path d="M320 520
             a160 160 0 0 1 160 -160
             h96
             a160 160 0 0 1 160 160
             v128
             h-416
             z"
          fill="none" stroke="#FFFFFF" stroke-width="56" stroke-linejoin="round"/>

    <!-- Door/slot line -->
    <path d="M352 552 h320" stroke="#FFFFFF" stroke-width="44" stroke-linecap="round"/>

    <!-- Letter (envelope) -->
    <g transform="translate(350,430)">
      <rect x="0" y="0" width="324" height="210" rx="28" fill="#FFFFFF"/>
      <path d="M24 44 L162 132 L300 44" fill="none" stroke="#2563EB" stroke-width="28" stroke-linecap="round" stroke-linejoin="round"/>
      <path d="M24 176 L162 92 L300 176" fill="none" stroke="#2563EB" stroke-width="28" stroke-linecap="round" stroke-linejoin="round" opacity="0.9"/>
    </g>

    <!-- Flag -->
    <path d="M708 456 v140" stroke="#FFFFFF" stroke-width="36" stroke-linecap="round"/>
    <path d="M708 470 h120 l-36 52 36 52 h-120" fill="#FFFFFF" opacity="0.95"/>
  </g>
</svg>
